PathFileType	4	(X/Y/Z)	C:/Users/opensim2020/Desktop/walking_exp_matlab/subject02_walking06_static.trc	
DataRate	CameraRate	NumFrames	NumMarkers	Units	OrigDataRate	OrigDataStartFrame	OrigNumFrames	
100.00	100.00	9	41	mm	100.00	216	287	
Frame#	Time	LFHD			RFHD			LBHD			RBHD			C7			T10			CLAV			STRN			RBAK			LSHO			LUPA			LELB			LFRM			LWRA			LWRB			LFIN			RSHO			RUPA			RELB			RFRM			RWRA			RWRB			RFIN			LASI			RASI			LPSI			RPSI			LTHI			LKNE			LTIB			LANK			LHEE			LTOE			RTHI			RKNE			RTIB			RANK			RHEE			RTOE			*39			*40			
		X1	Y1	Z1	X2	Y2	Z2	X3	Y3	Z3	X4	Y4	Z4	X5	Y5	Z5	X6	Y6	Z6	X7	Y7	Z7	X8	Y8	Z8	X9	Y9	Z9	X10	Y10	Z10	X11	Y11	Z11	X12	Y12	Z12	X13	Y13	Z13	X14	Y14	Z14	X15	Y15	Z15	X16	Y16	Z16	X17	Y17	Z17	X18	Y18	Z18	X19	Y19	Z19	X20	Y20	Z20	X21	Y21	Z21	X22	Y22	Z22	X23	Y23	Z23	X24	Y24	Z24	X25	Y25	Z25	X26	Y26	Z26	X27	Y27	Z27	X28	Y28	Z28	X29	Y29	Z29	X30	Y30	Z30	X31	Y31	Z31	X32	Y32	Z32	X33	Y33	Z33	X34	Y34	Z34	X35	Y35	Z35	X36	Y36	Z36	X37	Y37	Z37	X38	Y38	Z38	X39	Y39	Z39	X40	Y40	Z40	X41	Y41	Z41	

216	2.150	-22.89924	-696.66980	1750.29395	-11.50476	-554.59631	1731.89612	100.61075	-717.14001	1665.67566	124.52344	-576.91278	1644.94836	149.02869	-642.75024	1522.33801	188.98540	-639.44299	1247.95459	-0.96421	-651.67035	1472.46362	-65.44083	-640.50531	1304.53406	187.96077	-569.89026	1350.48291	57.09978	-818.97626	1513.11694	52.60728	-926.76910	1329.46057	56.80405	-956.46277	1188.39368	32.58541	-962.78894	1054.66724	-24.13839	-911.84088	937.41064	12.49476	-954.88007	933.35278	-14.88800	-951.80096	873.43323	53.55725	-460.82642	1509.28149	56.86101	-347.73419	1336.52197	33.13688	-316.76428	1190.65234	-6.66346	-308.51733	1073.53589	-50.79522	-343.98859	949.39398	-19.97408	-297.43478	943.33514	-60.90936	-308.91321	884.87299	-42.14074	-758.94397	994.23541	-32.31094	-508.37558	986.34644	169.04840	-690.23676	1028.31616	177.98166	-575.51215	1029.72473	33.04568	-839.10565	686.06592	67.95995	-828.10333	484.18726	124.51137	-852.00641	299.75418	116.09244	-847.18604	72.56119	151.58490	-801.23615	41.00416	-42.88939	-860.28687	30.99018	55.54807	-415.58420	682.49750	56.89973	-431.89996	471.27045	109.71751	-404.16779	292.02716	133.52361	-415.29147	97.06425	166.47308	-465.25992	37.51790	-15.43965	-379.80362	37.97369	91.83398	-617.36804	1808.23071	-3360.31982	2845.10718	1033.89075 
217	2.160	-23.04727	-696.69647	1750.24915	-11.60221	-554.62653	1731.86108	100.48994	-717.15680	1665.67847	124.43588	-576.90631	1644.98071	148.98882	-642.75055	1522.34216	188.97189	-639.46051	1247.92651	-0.98553	-651.71741	1472.41736	-65.45191	-640.54272	1304.48816	187.87328	-570.11261	1350.42334	57.13430	-818.96802	1512.99365	52.57403	-926.92297	1329.40259	56.79268	-956.46173	1188.35803	32.61603	-962.42511	1054.50195	-24.24916	-911.78864	937.28217	12.39899	-955.00146	933.34729	-14.95997	-951.86011	873.40015	53.52757	-460.84698	1509.23669	56.80121	-347.61871	1336.56592	33.16883	-316.69882	1190.66064	-6.85442	-308.13766	1073.65442	-50.73203	-343.81985	949.38995	-19.95907	-297.25647	943.34631	-60.91149	-308.64877	884.90601	-42.17840	-758.95874	994.17853	-32.37595	-508.37399	986.33862	169.00558	-690.22076	1028.28198	177.93797	-575.53070	1029.71741	33.01408	-839.02301	686.01361	67.93460	-828.13153	484.18076	124.59837	-852.08240	299.78983	116.07771	-847.21472	72.56084	151.59256	-801.23010	40.97341	-42.88203	-860.31494	30.99466	55.54195	-415.62604	682.46124	56.86847	-431.86621	471.28543	109.71681	-404.14804	292.06616	133.50879	-415.29688	97.08479	166.48926	-465.25134	37.53606	-15.45513	-379.82501	37.94867	91.64515	-617.40552	1808.20923	-3360.38989	2845.17407	1033.88477 
218	2.170	-23.19080	-696.74658	1750.17139	-11.84113	-554.65924	1731.80420	100.40270	-717.18054	1665.67456	124.31728	-576.94208	1644.96619	148.93034	-642.76324	1522.31750	188.92896	-639.49457	1247.90222	-1.00346	-651.72729	1472.38330	-65.50055	-640.56512	1304.44348	187.83513	-570.38867	1350.08093	57.12963	-819.03363	1513.03088	52.58937	-926.93243	1329.33899	56.76434	-956.50446	1188.32959	32.56292	-962.48596	1054.47058	-24.35308	-911.86029	937.25470	12.30284	-955.05878	933.29535	-14.99668	-951.93097	873.37396	53.47307	-460.87326	1509.23096	56.55944	-347.80130	1336.57068	33.17445	-316.63675	1190.67773	-6.89728	-308.22653	1073.32849	-50.76787	-343.59607	949.37787	-19.93841	-297.06241	943.34955	-60.98254	-308.35873	884.95715	-42.22837	-758.97870	994.15411	-32.41511	-508.39832	986.31738	168.97595	-690.22662	1028.25745	177.89127	-575.50916	1029.67908	32.97884	-839.04578	685.98328	67.92316	-828.12836	484.16159	124.48455	-851.97925	299.70868	116.09444	-847.21301	72.55614	151.59082	-801.23236	40.97825	-42.86993	-860.31866	30.98487	55.49154	-415.67392	682.48279	56.81157	-431.90182	471.26913	109.68183	-404.16333	292.04123	133.52023	-415.28787	97.05402	166.68358	-465.18784	37.59170	-15.45397	-379.80197	37.93416	91.48009	-617.43951	1808.19653	-3360.31934	2845.07813	1033.96521 
219	2.180	-23.31664	-696.76385	1750.12878	-11.96832	-554.69934	1731.76721	100.33761	-717.17053	1665.70972	124.26344	-576.95819	1645.00647	148.89661	-642.76923	1522.30920	188.86676	-639.47638	1247.87439	-1.04936	-651.75024	1472.37402	-65.53297	-640.61945	1304.42419	187.90910	-569.88147	1350.13965	57.12601	-819.04376	1512.99146	52.61905	-926.94977	1329.29614	56.74645	-956.53333	1188.28406	32.48246	-962.83502	1054.51929	-24.41221	-911.93158	937.25513	12.31770	-955.04700	933.25726	-14.93395	-951.86847	873.32568	53.42995	-460.85837	1509.14978	56.31580	-348.05243	1336.35803	33.16669	-316.55557	1190.65735	-6.78783	-308.21677	1073.30469	-50.79033	-343.41714	949.36163	-20.22365	-297.13678	943.38892	-60.98258	-308.14569	884.97137	-42.26463	-758.97998	994.15045	-32.47818	-508.39337	986.31299	168.95099	-690.22803	1028.24133	177.85001	-575.52869	1029.65332	32.94547	-839.04321	685.99689	67.91393	-828.11566	484.14136	124.48324	-851.99738	299.72281	116.09646	-847.22015	72.56990	151.59308	-801.21802	40.96333	-42.87611	-860.30878	30.97660	55.44586	-415.68381	682.45941	56.76126	-432.04257	471.25314	109.66606	-404.16602	292.00974	133.51425	-415.30508	97.06278	166.48784	-465.29752	37.54237	-15.45587	-379.80206	37.95538	91.29092	-617.46362	1808.21545	-3357.31250	2845.76440	1033.98621 
220	2.190	-23.45222	-696.82404	1750.07483	-12.12499	-554.72162	1731.72607	100.25465	-717.18121	1665.72278	124.13824	-576.96295	1645.03137	148.83324	-642.75555	1522.29541	188.81718	-639.45026	1247.87354	-1.07250	-651.75812	1472.35388	-65.54710	-640.64777	1304.39807	187.85573	-569.83295	1350.12170	57.12658	-819.02618	1512.88977	52.73273	-926.84723	1329.28918	56.71906	-956.57709	1188.25830	32.49682	-962.56787	1054.39661	-24.50125	-912.01703	937.22491	12.20543	-955.17755	933.24438	-14.98262	-951.87494	873.26031	53.38904	-460.88983	1509.08606	56.80156	-347.98849	1336.55859	33.15991	-316.47675	1190.62439	-6.79606	-308.05618	1073.27722	-50.83305	-343.18884	949.33533	-20.09858	-296.91220	943.27838	-60.96146	-307.93018	884.92957	-42.32562	-758.99670	994.15930	-32.55458	-508.40250	986.32294	168.92215	-690.24597	1028.20972	177.79756	-575.54541	1029.64990	32.91075	-838.78967	685.90253	67.88837	-828.12341	484.14426	124.46105	-851.96967	299.70999	116.12621	-847.21265	72.58271	151.59367	-801.24323	40.97056	-42.88804	-860.29498	30.95847	55.27891	-416.12256	682.19763	56.75949	-431.92358	471.23038	109.63504	-404.17795	292.02435	133.50000	-415.30252	97.05998	166.63776	-465.19647	37.64117	-15.46446	-379.79050	37.92728	91.08704	-617.42920	1808.22119	-3360.17944	2845.05981	1033.90125 
221	2.200	-23.56966	-696.86835	1750.02319	-12.31362	-554.74493	1731.70422	100.16286	-717.19916	1665.76306	124.03226	-576.94641	1645.07336	148.77554	-642.74615	1522.30701	188.75223	-639.42957	1247.89868	-1.09995	-651.77667	1472.33191	-65.56288	-640.67072	1304.36462	187.72899	-570.26770	1350.05322	57.10744	-819.07550	1512.94910	52.70063	-926.86041	1329.26428	56.71750	-956.62219	1188.22314	32.47397	-962.63965	1054.39209	-24.60676	-912.12097	937.22589	12.26239	-955.13373	933.25116	-15.15616	-951.98907	873.18500	53.33036	-460.86746	1509.02515	56.71733	-347.97995	1336.50745	33.13910	-316.43036	1190.60278	-6.77752	-307.99808	1073.24475	-50.80376	-343.00095	949.28601	-19.90631	-296.45496	943.30115	-60.90293	-307.71429	884.86633	-42.35920	-759.02124	994.18671	-32.57253	-508.43665	986.29028	168.86116	-690.22949	1028.19751	177.76398	-575.52692	1029.63269	32.89108	-838.81360	685.90845	67.87989	-828.11823	484.13510	124.45180	-851.98065	299.70120	116.09790	-847.19434	72.55723	151.60023	-801.21259	40.96148	-42.88468	-860.31049	30.97223	55.30250	-415.71249	682.42841	56.72751	-431.96289	471.22235	109.58462	-404.19724	292.02289	133.48640	-415.32410	97.08163	166.47462	-465.30771	37.51208	-15.46132	-379.80429	37.93258	90.90388	-617.42419	1808.23914	-3357.49927	2845.86084	1034.06482 
222	2.210	-23.71062	-696.88599	1749.98389	-12.45956	-554.75891	1731.65063	100.09813	-717.17908	1665.80981	123.90895	-576.94800	1645.07361	148.72490	-642.75836	1522.31995	188.69370	-639.41809	1247.88916	-1.12196	-651.80261	1472.31787	-65.57785	-640.69409	1304.33655	187.70894	-569.87402	1350.27869	57.09482	-819.09583	1512.92505	52.67235	-926.86542	1329.24292	56.71470	-956.64191	1188.19617	32.45100	-962.69415	1054.38867	-24.56575	-912.33923	937.31250	12.23997	-955.42279	933.24457	-15.15096	-952.12347	873.24286	53.28209	-460.87714	1508.97253	56.23994	-348.01489	1336.24768	33.07870	-316.39517	1190.55054	-6.78947	-307.89755	1073.18835	-50.80161	-342.80508	949.18793	-19.83143	-296.29037	943.26221	-60.85957	-307.51135	884.81067	-42.38953	-758.99835	994.18066	-32.66233	-508.44141	986.29993	168.81818	-690.22906	1028.19226	177.72470	-575.54456	1029.63025	32.84624	-838.77948	685.87787	67.86019	-828.13464	484.14734	124.47076	-851.96332	299.71661	116.10655	-847.17761	72.55952	151.58554	-801.20404	40.97466	-42.86697	-860.31299	30.99017	55.49413	-415.54333	682.58417	56.68328	-431.94772	471.23007	109.59696	-404.20822	292.02332	133.50282	-415.30734	97.07728	166.49739	-465.30933	37.57237	-15.48222	-379.79266	37.95203	90.74230	-617.44702	1808.26843	-3360.24512	2845.15625	1034.06848 
223	2.220	-23.76680	-696.74762	1749.81421	-12.62038	-554.78918	1731.61829	100.03520	-717.15979	1665.83899	123.83501	-576.90033	1645.12695	148.67404	-642.72296	1522.35791	188.62637	-639.42804	1247.89026	-1.14978	-651.79773	1472.29053	-65.58927	-640.71448	1304.28625	187.53651	-570.52942	1350.16248	57.07242	-819.08472	1512.90955	52.62876	-926.88336	1329.22437	56.71204	-956.68414	1188.17029	32.44266	-962.76105	1054.37415	-24.83146	-912.46722	937.31946	12.02703	-955.37988	933.19574	-15.31249	-952.10645	873.12671	52.88815	-461.04120	1508.77966	56.63637	-348.01669	1336.33972	33.05359	-316.37860	1190.51733	-6.83013	-307.80786	1073.14954	-50.76363	-342.64685	949.10431	-19.81652	-296.13733	943.23999	-60.81676	-307.33862	884.75104	-42.43075	-759.00183	994.18451	-32.73493	-508.46747	986.29828	168.77498	-690.24994	1028.20215	177.65776	-575.56647	1029.63831	32.82039	-838.81152	685.91345	67.85609	-828.13556	484.16110	124.46797	-851.97595	299.72961	116.08899	-847.17883	72.54522	151.60947	-801.21716	40.98934	-42.87366	-860.30292	30.98201	55.20151	-415.71848	682.44617	56.50942	-432.17276	471.22498	109.58285	-404.19974	292.03604	133.46104	-415.31223	97.08640	166.46333	-465.31961	37.57002	-15.48472	-379.78159	37.93372	90.55665	-617.44373	1808.28967	-3360.37061	2845.17871	1033.90393 
224	2.230	-23.93463	-696.93024	1749.86145	-12.76908	-554.79675	1731.58105	99.96458	-717.14905	1665.85657	123.76711	-576.88831	1645.16418	148.60750	-642.73669	1522.37134	188.59622	-639.43164	1247.88354	-1.16604	-651.81494	1472.25146	-65.58499	-640.73999	1304.23181	187.68204	-569.91925	1350.09314	57.05065	-819.08960	1512.88049	52.59733	-926.88092	1329.20837	56.70395	-956.73535	1188.15942	32.41407	-962.80029	1054.36694	-24.85764	-912.43329	937.29608	11.96371	-955.45190	933.19769	-15.48795	-952.35425	873.17712	53.09739	-460.89252	1508.80701	56.28135	-347.89368	1336.12231	32.99670	-316.34979	1190.46753	-6.81625	-307.75150	1073.04102	-50.75491	-342.50412	949.00427	-19.79013	-295.99835	943.18091	-60.76475	-307.16995	884.63672	-42.46582	-759.00165	994.16882	-32.82053	-508.49249	986.29529	168.73019	-690.24542	1028.19995	177.60216	-575.57129	1029.62048	32.76597	-839.02325	685.96533	67.85351	-828.14703	484.15140	124.53609	-852.04657	299.75934	116.09890	-847.18176	72.55337	151.61011	-801.24109	40.97086	-42.87404	-860.31537	30.99077	54.88584	-416.15372	682.35736	56.62013	-432.10480	471.26120	109.61990	-404.23480	292.05447	133.49036	-415.32739	97.07915	166.46376	-465.29309	37.56020	-15.46418	-379.79770	37.93512	90.37391	-617.41571	1808.29504	-3360.47974	2845.29468	1033.71606 
